<svg width="21" height="26" viewBox="0 0 21 26" fill="none" xmlns="http://www.w3.org/2000/svg">
<path d="M0 25.728V5.71733H5.00267V5.00267C5.00267 3.61335 5.48912 2.43225 6.46202 1.45935C7.43492 0.48645 8.61602 0 10.0053 0C11.3946 0 12.5758 0.48645 13.5487 1.45935C14.5216 2.43225 15.008 3.61335 15.008 5.00267V5.71733H20.0107V25.728H0ZM1.42933 24.2987H18.5813V7.14667H15.008V11.4347H13.5787V7.14667H6.432V11.4347H5.00267V7.14667H1.42933V24.2987ZM6.432 5.71733H13.5787V5.00267C13.5787 3.99642 13.2347 3.1493 12.5467 2.46131C11.8587 1.77333 11.0116 1.42933 10.0053 1.42933C8.99908 1.42933 8.15196 1.77333 7.46398 2.46131C6.77599 3.1493 6.432 3.99642 6.432 5.00267V5.71733Z" fill="black"/>
</svg>
